<svg width="120" height="40" viewBox="0 0 120 40" fill="none" xmlns="http://www.w3.org/2000/svg">
<path d="M113.62 0H5.98C2.67734 0 0 2.68629 0 6V34C0 37.3137 2.67734 40 5.98 40H113.62C116.923 40 119.6 37.3137 119.6 34V6C119.6 2.68629 116.923 0 113.62 0Z" fill="url(#paint0_linear_22_2)"/>
<path d="M113.772 1H6.22785C3.34059 1 1 3.31998 1 6.18182V33.8182C1 36.68 3.34059 39 6.22785 39H113.772C116.659 39 119 36.68 119 33.8182V6.18182C119 3.31998 116.659 1 113.772 1Z" stroke="white" stroke-opacity="0.15" stroke-width="1.5"/>
<path d="M42.8857 9.71705L40.2404 17H39.1592L42.2052 9.00906H42.9022L42.8857 9.71705ZM45.103 17L42.4521 9.71705L42.4357 9.00906H43.1327L46.1896 17H45.103ZM44.9658 14.0418V14.909H40.4763V14.0418H44.9658ZM48.6374 16.0835L50.262 11.0617H51.2992L49.1643 17H48.4837L48.6374 16.0835ZM47.2818 11.0617L48.9557 16.1109L49.071 17H48.3904L46.239 11.0617H47.2818ZM55.6899 15.9847V12.9277C55.6899 12.6935 55.6423 12.4905 55.5472 12.3185C55.4557 12.1429 55.3167 12.0075 55.1301 11.9124C54.9435 11.8172 54.7129 11.7697 54.4385 11.7697C54.1824 11.7697 53.9574 11.8136 53.7635 11.9014C53.5732 11.9892 53.4232 12.1045 53.3134 12.2471C53.2073 12.3898 53.1543 12.5435 53.1543 12.7082H52.1389C52.1389 12.496 52.1938 12.2856 52.3036 12.077C52.4134 11.8685 52.5707 11.68 52.7756 11.5117C52.9841 11.3398 53.2329 11.2044 53.522 11.1056C53.8147 11.0031 54.1403 10.9519 54.4989 10.9519C54.9307 10.9519 55.3112 11.0251 55.6405 11.1714C55.9734 11.3178 56.2332 11.5392 56.4198 11.8355C56.6101 12.1282 56.7052 12.496 56.7052 12.9387V15.7048C56.7052 15.9023 56.7217 16.1127 56.7546 16.3359C56.7912 16.5591 56.8442 16.7512 56.9137 16.9122V17H55.8545C55.8033 16.8829 55.763 16.7274 55.7338 16.5335C55.7045 16.3359 55.6899 16.153 55.6899 15.9847ZM55.8655 13.3997L55.8765 14.1132H54.8502C54.5611 14.1132 54.3032 14.1369 54.0763 14.1845C53.8495 14.2284 53.6592 14.2961 53.5055 14.3876C53.3519 14.479 53.2348 14.5943 53.1543 14.7333C53.0738 14.8687 53.0335 15.0279 53.0335 15.2108C53.0335 15.3974 53.0756 15.5676 53.1598 15.7212C53.2439 15.8749 53.3701 15.9975 53.5385 16.0889C53.7104 16.1768 53.9208 16.2207 54.1696 16.2207C54.4806 16.2207 54.755 16.1548 54.9929 16.0231C55.2307 15.8914 55.4191 15.7304 55.5581 15.5401C55.7008 15.3499 55.7777 15.1651 55.7887 14.9858L56.2222 15.4743C56.1966 15.6279 56.1271 15.7981 56.0137 15.9847C55.9002 16.1713 55.7484 16.3506 55.5581 16.5225C55.3715 16.6908 55.1484 16.8317 54.8886 16.9451C54.6325 17.0549 54.3434 17.1098 54.0214 17.1098C53.619 17.1098 53.2659 17.0311 52.9622 16.8738C52.6622 16.7164 52.428 16.5061 52.2597 16.2426C52.095 15.9755 52.0127 15.6773 52.0127 15.348C52.0127 15.0297 52.0749 14.7498 52.1993 14.5083C52.3237 14.2632 52.503 14.0601 52.7372 13.8991C52.9713 13.7345 53.2531 13.6101 53.5824 13.5259C53.9117 13.4418 54.2794 13.3997 54.6855 13.3997H55.8655ZM59.4054 11.0617V17H58.3846V11.0617H59.4054ZM58.3078 9.48654C58.3078 9.32189 58.3572 9.18286 58.456 9.06943C58.5584 8.95601 58.7084 8.8993 58.906 8.8993C59.0999 8.8993 59.2481 8.95601 59.3505 9.06943C59.4567 9.18286 59.5097 9.32189 59.5097 9.48654C59.5097 9.64387 59.4567 9.77925 59.3505 9.89268C59.2481 10.0024 59.0999 10.0573 58.906 10.0573C58.7084 10.0573 58.5584 10.0024 58.456 9.89268C58.3572 9.77925 58.3078 9.64387 58.3078 9.48654ZM62.1386 8.57V17H61.1178V8.57H62.1386ZM67.2701 15.9847V12.9277C67.2701 12.6935 67.2226 12.4905 67.1274 12.3185C67.036 12.1429 66.8969 12.0075 66.7103 11.9124C66.5237 11.8172 66.2932 11.7697 66.0188 11.7697C65.7627 11.7697 65.5377 11.8136 65.3438 11.9014C65.1535 11.9892 65.0035 12.1045 64.8937 12.2471C64.7876 12.3898 64.7346 12.5435 64.7346 12.7082H63.7192C63.7192 12.496 63.7741 12.2856 63.8839 12.077C63.9936 11.8685 64.151 11.68 64.3559 11.5117C64.5644 11.3398 64.8132 11.2044 65.1023 11.1056C65.395 11.0031 65.7206 10.9519 66.0792 10.9519C66.5109 10.9519 66.8914 11.0251 67.2207 11.1714C67.5537 11.3178 67.8135 11.5392 68.0001 11.8355C68.1903 12.1282 68.2855 12.496 68.2855 12.9387V15.7048C68.2855 15.9023 68.3019 16.1127 68.3349 16.3359C68.3715 16.5591 68.4245 16.7512 68.494 16.9122V17H67.4348C67.3836 16.8829 67.3433 16.7274 67.314 16.5335C67.2848 16.3359 67.2701 16.153 67.2701 15.9847ZM67.4458 13.3997L67.4567 14.1132H66.4304C66.1414 14.1132 65.8834 14.1369 65.6566 14.1845C65.4297 14.2284 65.2395 14.2961 65.0858 14.3876C64.9321 14.479 64.815 14.5943 64.7346 14.7333C64.6541 14.8687 64.6138 15.0279 64.6138 15.2108C64.6138 15.3974 64.6559 15.5676 64.74 15.7212C64.8242 15.8749 64.9504 15.9975 65.1187 16.0889C65.2907 16.1768 65.5011 16.2207 65.7499 16.2207C66.0609 16.2207 66.3353 16.1548 66.5731 16.0231C66.811 15.8914 66.9994 15.7304 67.1384 15.5401C67.2811 15.3499 67.3579 15.1651 67.3689 14.9858L67.8025 15.4743C67.7769 15.6279 67.7074 15.7981 67.5939 15.9847C67.4805 16.1713 67.3287 16.3506 67.1384 16.5225C66.9518 16.6908 66.7286 16.8317 66.4688 16.9451C66.2127 17.0549 65.9237 17.1098 65.6017 17.1098C65.1992 17.1098 64.8461 17.0311 64.5425 16.8738C64.2424 16.7164 64.0083 16.5061 63.84 16.2426C63.6753 15.9755 63.593 15.6773 63.593 15.348C63.593 15.0297 63.6552 14.7498 63.7796 14.5083C63.904 14.2632 64.0833 14.0601 64.3174 13.8991C64.5516 13.7345 64.8333 13.6101 65.1626 13.5259C65.4919 13.4418 65.8596 13.3997 66.2658 13.3997H67.4458ZM69.8771 8.57H70.8979V15.8475L70.8101 17H69.8771V8.57ZM74.9098 13.9814V14.0967C74.9098 14.5284 74.8586 14.9291 74.7562 15.2986C74.6537 15.6645 74.5037 15.9828 74.3061 16.2536C74.1085 16.5243 73.8671 16.7347 73.5817 16.8847C73.2963 17.0348 72.9688 17.1098 72.5993 17.1098C72.2224 17.1098 71.8913 17.0457 71.6059 16.9177C71.3241 16.786 71.0863 16.5975 70.8924 16.3524C70.6985 16.1072 70.543 15.8109 70.4259 15.4633C70.3125 15.1157 70.2338 14.7242 70.1899 14.2888V13.7839C70.2338 13.3448 70.3125 12.9515 70.4259 12.6039C70.543 12.2563 70.6985 11.9599 70.8924 11.7148C71.0863 11.466 71.3241 11.2776 71.6059 11.1495C71.8876 11.0178 72.2151 10.9519 72.5883 10.9519C72.9615 10.9519 73.2926 11.0251 73.5817 11.1714C73.8707 11.3141 74.1122 11.519 74.3061 11.7861C74.5037 12.0532 74.6537 12.3734 74.7562 12.7466C74.8586 13.1161 74.9098 13.5277 74.9098 13.9814ZM73.889 14.0967V13.9814C73.889 13.6851 73.8616 13.407 73.8067 13.1472C73.7518 12.8838 73.664 12.6533 73.5432 12.4557C73.4225 12.2545 73.2633 12.0971 73.0658 11.9837C72.8682 11.8666 72.6249 11.8081 72.3358 11.8081C72.0797 11.8081 71.8565 11.852 71.6663 11.9398C71.4796 12.0276 71.3205 12.1465 71.1888 12.2965C71.0571 12.4429 70.9491 12.6112 70.865 12.8015C70.7845 12.9881 70.7241 13.182 70.6838 13.3832V14.7059C70.7424 14.962 70.8375 15.209 70.9692 15.4468C71.1046 15.681 71.2839 15.8731 71.5071 16.0231C71.7339 16.1731 72.0138 16.2481 72.3468 16.2481C72.6212 16.2481 72.8554 16.1932 73.0493 16.0835C73.2469 15.97 73.406 15.8145 73.5268 15.617C73.6512 15.4194 73.7426 15.1907 73.8012 14.9309C73.8597 14.6711 73.889 14.3931 73.889 14.0967ZM77.2972 8.57V17H76.2764V8.57H77.2972ZM81.3915 17.1098C80.978 17.1098 80.603 17.0402 80.2664 16.9012C79.9334 16.7585 79.6462 16.5591 79.4047 16.303C79.1669 16.0469 78.984 15.7432 78.8559 15.3919C78.7278 15.0407 78.6638 14.6565 78.6638 14.2394V14.0089C78.6638 13.5259 78.7352 13.096 78.8778 12.7191C79.0205 12.3386 79.2145 12.0166 79.4596 11.7532C79.7048 11.4898 79.9828 11.2904 80.2938 11.155C80.6048 11.0196 80.9268 10.9519 81.2598 10.9519C81.6842 10.9519 82.0501 11.0251 82.3574 11.1714C82.6684 11.3178 82.9227 11.5227 83.1203 11.7861C83.3179 12.0459 83.4642 12.3533 83.5594 12.7082C83.6545 13.0594 83.702 13.4436 83.702 13.8607V14.3162H79.2675V13.4875H82.6867V13.4107C82.6721 13.1472 82.6172 12.8911 82.5221 12.6423C82.4306 12.3935 82.2842 12.1886 82.083 12.0276C81.8818 11.8666 81.6074 11.7861 81.2598 11.7861C81.0293 11.7861 80.817 11.8355 80.6231 11.9343C80.4292 12.0294 80.2627 12.1721 80.1237 12.3624C79.9847 12.5527 79.8767 12.785 79.7999 13.0594C79.723 13.3338 79.6846 13.6503 79.6846 14.0089V14.2394C79.6846 14.5211 79.723 14.7864 79.7999 15.0352C79.8804 15.2803 79.9956 15.4962 80.1456 15.6828C80.2993 15.8694 80.4841 16.0158 80.7 16.1219C80.9195 16.228 81.1683 16.281 81.4464 16.281C81.8049 16.281 82.1086 16.2079 82.3574 16.0615C82.6062 15.9151 82.8239 15.7194 83.0105 15.4743L83.6252 15.9627C83.4972 16.1566 83.3343 16.3414 83.1368 16.517C82.9392 16.6927 82.6959 16.8354 82.4068 16.9451C82.1214 17.0549 81.783 17.1098 81.3915 17.1098ZM87.4066 14.0967V13.9705C87.4066 13.5424 87.4688 13.1454 87.5932 12.7795C87.7176 12.41 87.8969 12.0898 88.1311 11.8191C88.3653 11.5446 88.6488 11.3324 88.9818 11.1824C89.3147 11.0288 89.6879 10.9519 90.1014 10.9519C90.5185 10.9519 90.8935 11.0288 91.2265 11.1824C91.5631 11.3324 91.8485 11.5446 92.0827 11.8191C92.3205 12.0898 92.5016 12.41 92.626 12.7795C92.7504 13.1454 92.8126 13.5424 92.8126 13.9705V14.0967C92.8126 14.5248 92.7504 14.9218 92.626 15.2877C92.5016 15.6535 92.3205 15.9737 92.0827 16.2481C91.8485 16.5189 91.5649 16.7311 91.232 16.8847C90.9027 17.0348 90.5295 17.1098 90.1124 17.1098C89.6953 17.1098 89.3202 17.0348 88.9873 16.8847C88.6543 16.7311 88.3689 16.5189 88.1311 16.2481C87.8969 15.9737 87.7176 15.6535 87.5932 15.2877C87.4688 14.9218 87.4066 14.5248 87.4066 14.0967ZM88.422 13.9705V14.0967C88.422 14.3931 88.4567 14.673 88.5262 14.9364C88.5958 15.1962 88.7 15.4267 88.8391 15.6279C88.9818 15.8292 89.1592 15.9883 89.3714 16.1054C89.5837 16.2188 89.8306 16.2755 90.1124 16.2755C90.3904 16.2755 90.6337 16.2188 90.8423 16.1054C91.0545 15.9883 91.2301 15.8292 91.3692 15.6279C91.5082 15.4267 91.6125 15.1962 91.682 14.9364C91.7552 14.673 91.7918 14.3931 91.7918 14.0967V13.9705C91.7918 13.6778 91.7552 13.4015 91.682 13.1417C91.6125 12.8783 91.5064 12.646 91.3637 12.4447C91.2247 12.2398 91.049 12.0788 90.8368 11.9618C90.6283 11.8447 90.3831 11.7861 90.1014 11.7861C89.8233 11.7861 89.5782 11.8447 89.366 11.9618C89.1574 12.0788 88.9818 12.2398 88.8391 12.4447C88.7 12.646 88.5958 12.8783 88.5262 13.1417C88.4567 13.4015 88.422 13.6778 88.422 13.9705ZM95.1012 12.3295V17H94.0859V11.0617H95.0463L95.1012 12.3295ZM94.8597 13.8058L94.4371 13.7894C94.4408 13.3832 94.5012 13.0082 94.6182 12.6643C94.7353 12.3167 94.9 12.0148 95.1122 11.7587C95.3244 11.5026 95.5769 11.305 95.8696 11.166C96.1659 11.0233 96.4934 10.9519 96.852 10.9519C97.1447 10.9519 97.4081 10.9922 97.6423 11.0727C97.8765 11.1495 98.0759 11.2739 98.2405 11.4459C98.4088 11.6178 98.5369 11.841 98.6247 12.1154C98.7125 12.3862 98.7564 12.7173 98.7564 13.1088V17H97.7356V13.0978C97.7356 12.7868 97.6898 12.538 97.5984 12.3514C97.5069 12.1612 97.3734 12.024 97.1977 11.9398C97.0221 11.852 96.8062 11.8081 96.5501 11.8081C96.2977 11.8081 96.0671 11.8611 95.8586 11.9672C95.6537 12.0734 95.4762 12.2197 95.3262 12.4063C95.1799 12.5929 95.0646 12.807 94.9805 13.0484C94.9 13.2863 94.8597 13.5387 94.8597 13.8058Z" fill="white"/>
<path d="M43.6997 29.9375C43.6997 29.805 43.68 29.6868 43.6406 29.583C43.6012 29.4756 43.5296 29.3771 43.4258 29.2876C43.3219 29.1981 43.1751 29.1086 42.9854 29.019C42.7956 28.9259 42.5467 28.8311 42.2388 28.7344C41.8879 28.6198 41.5531 28.4909 41.2344 28.3477C40.9193 28.2008 40.6382 28.0308 40.3911 27.8374C40.144 27.644 39.9489 27.4185 39.8057 27.1606C39.666 26.9028 39.5962 26.6021 39.5962 26.2583C39.5962 25.9253 39.6696 25.6245 39.8164 25.356C39.9632 25.0874 40.1691 24.8582 40.4341 24.6685C40.6991 24.4751 41.0106 24.3283 41.3687 24.228C41.7267 24.1242 42.1206 24.0723 42.5503 24.0723C43.1232 24.0723 43.6263 24.1743 44.0596 24.3784C44.4964 24.5789 44.8366 24.8618 45.0801 25.2271C45.3236 25.5887 45.4453 26.0094 45.4453 26.4893H43.7051C43.7051 26.278 43.6603 26.0918 43.5708 25.9307C43.4849 25.766 43.3524 25.637 43.1733 25.5439C42.9979 25.4508 42.7777 25.4043 42.5127 25.4043C42.2549 25.4043 42.0382 25.4437 41.8628 25.5225C41.6909 25.5977 41.5602 25.7015 41.4707 25.834C41.3848 25.9665 41.3418 26.1115 41.3418 26.269C41.3418 26.3944 41.374 26.509 41.4385 26.6128C41.5065 26.7131 41.6032 26.8079 41.7285 26.8975C41.8574 26.9834 42.015 27.0658 42.2012 27.1445C42.3874 27.2233 42.6004 27.2985 42.8403 27.3701C43.2593 27.5026 43.6299 27.6494 43.9521 27.8105C44.278 27.9717 44.5519 28.1543 44.7739 28.3584C44.9959 28.5625 45.1624 28.7935 45.2734 29.0513C45.388 29.3091 45.4453 29.6009 45.4453 29.9268C45.4453 30.2741 45.3773 30.582 45.2412 30.8506C45.1087 31.1191 44.9154 31.3483 44.6611 31.5381C44.4105 31.7243 44.1097 31.8657 43.7588 31.9624C43.4079 32.0591 43.0158 32.1074 42.5825 32.1074C42.1886 32.1074 41.8001 32.0573 41.417 31.957C41.0339 31.8532 40.6865 31.6956 40.375 31.4844C40.0671 31.2731 39.82 31.0046 39.6338 30.6787C39.4512 30.3493 39.3599 29.959 39.3599 29.5078H41.1108C41.1108 29.7441 41.1449 29.9447 41.2129 30.1094C41.2809 30.2705 41.3776 30.4012 41.5029 30.5015C41.6318 30.6017 41.7876 30.6733 41.9702 30.7163C42.1528 30.7593 42.3569 30.7808 42.5825 30.7808C42.8439 30.7808 43.0552 30.745 43.2163 30.6733C43.381 30.5981 43.5028 30.4961 43.5815 30.3672C43.6603 30.2383 43.6997 30.0951 43.6997 29.9375ZM49.3447 26.1885V27.3647H45.8965V26.1885H49.3447ZM46.686 24.749H48.3672V30.1792C48.3672 30.3403 48.3869 30.4639 48.4263 30.5498C48.4657 30.6357 48.5301 30.6966 48.6196 30.7324C48.7091 30.7646 48.8237 30.7808 48.9634 30.7808C49.0636 30.7808 49.1496 30.7772 49.2212 30.77C49.2928 30.7629 49.359 30.7539 49.4199 30.7432V31.957C49.2767 32.0036 49.1245 32.0394 48.9634 32.0645C48.8022 32.0931 48.6268 32.1074 48.437 32.1074C48.0754 32.1074 47.762 32.0483 47.4971 31.9302C47.2357 31.812 47.0352 31.6258 46.8955 31.3716C46.7559 31.1138 46.686 30.779 46.686 30.3672V24.749ZM51.9014 31.3286L53.4214 26.1885H55.2261L52.8896 32.8701C52.8395 33.0169 52.7715 33.1745 52.6855 33.3428C52.6032 33.5111 52.4904 33.6722 52.3472 33.8262C52.2075 33.9801 52.0285 34.1055 51.8101 34.2021C51.5916 34.2988 51.3231 34.3472 51.0044 34.3472C50.8433 34.3472 50.7179 34.3382 50.6284 34.3203C50.5425 34.306 50.4279 34.2809 50.2847 34.2451L50.2793 33.0259C50.3258 33.0259 50.367 33.0259 50.4028 33.0259C50.4422 33.0295 50.4816 33.0312 50.521 33.0312C50.7215 33.0312 50.8826 33.0098 51.0044 32.9668C51.1297 32.9238 51.2264 32.8594 51.2944 32.7734C51.366 32.6911 51.4233 32.5854 51.4663 32.4565L51.9014 31.3286ZM51.3911 26.1885L52.5942 30.3242L52.7983 32.1021L51.665 32.1611L49.5864 26.1885H51.3911ZM57.5356 23.75V32H55.8545V23.75H57.5356ZM62.1548 30.5981V26.1885H63.8413V32H62.2622L62.1548 30.5981ZM62.332 29.4111L62.7939 29.4004C62.7939 29.7907 62.7474 30.1506 62.6543 30.48C62.5648 30.8094 62.4287 31.0959 62.2461 31.3394C62.0671 31.5828 61.8433 31.7726 61.5747 31.9087C61.3097 32.0412 61 32.1074 60.6455 32.1074C60.359 32.1074 60.0959 32.068 59.856 31.9893C59.6196 31.9069 59.4155 31.7798 59.2437 31.6079C59.0718 31.4325 58.9393 31.2087 58.8462 30.9365C58.7531 30.6608 58.7065 30.3314 58.7065 29.9482V26.1885H60.3823V29.959C60.3823 30.1094 60.4002 30.2383 60.436 30.3457C60.4754 30.4495 60.5273 30.5355 60.5918 30.6035C60.6598 30.6715 60.7422 30.7217 60.8389 30.7539C60.9391 30.7861 61.0483 30.8022 61.1665 30.8022C61.4637 30.8022 61.6965 30.7414 61.8647 30.6196C62.0366 30.4943 62.1566 30.3278 62.2246 30.1201C62.2962 29.9089 62.332 29.6725 62.332 29.4111ZM68.0254 30.3833C68.0254 30.2759 67.9914 30.181 67.9233 30.0986C67.8589 30.0163 67.7407 29.9411 67.5688 29.873C67.4006 29.805 67.1624 29.737 66.8545 29.6689C66.5645 29.6081 66.2941 29.5293 66.0435 29.4326C65.7928 29.3324 65.5744 29.2124 65.3882 29.0728C65.202 28.9295 65.057 28.7612 64.9531 28.5679C64.8493 28.3709 64.7974 28.1471 64.7974 27.8965C64.7974 27.653 64.8493 27.422 64.9531 27.2036C65.0605 26.9852 65.2145 26.7918 65.415 26.6235C65.6191 26.4552 65.8662 26.3228 66.1562 26.2261C66.4499 26.1294 66.7829 26.0811 67.1553 26.0811C67.6673 26.0811 68.1095 26.1616 68.4819 26.3228C68.8543 26.4803 69.1408 26.7023 69.3413 26.9888C69.5418 27.2716 69.6421 27.5957 69.6421 27.9609H67.9663C67.9663 27.8105 67.9377 27.6799 67.8804 27.5688C67.8231 27.4578 67.7354 27.3719 67.6172 27.311C67.499 27.2466 67.3433 27.2144 67.1499 27.2144C66.9995 27.2144 66.867 27.2412 66.7524 27.2949C66.6414 27.3451 66.5537 27.4149 66.4893 27.5044C66.4284 27.5939 66.3979 27.6978 66.3979 27.8159C66.3979 27.8983 66.4159 27.9735 66.4517 28.0415C66.491 28.106 66.5501 28.1668 66.6289 28.2241C66.7113 28.2778 66.8169 28.3262 66.9458 28.3691C67.0783 28.4121 67.2394 28.4533 67.4292 28.4927C67.8338 28.5679 68.2026 28.6735 68.5356 28.8096C68.8722 28.9456 69.1408 29.1336 69.3413 29.3735C69.5454 29.6134 69.6475 29.9303 69.6475 30.3242C69.6475 30.582 69.5884 30.8184 69.4702 31.0332C69.3556 31.248 69.1891 31.436 68.9707 31.5972C68.7523 31.7583 68.4909 31.8836 68.1865 31.9731C67.8822 32.0627 67.5384 32.1074 67.1553 32.1074C66.6074 32.1074 66.1437 32.009 65.7642 31.812C65.3846 31.6151 65.0981 31.368 64.9048 31.0708C64.715 30.77 64.6201 30.4621 64.6201 30.147H66.1938C66.201 30.3403 66.2493 30.4979 66.3389 30.6196C66.432 30.7414 66.5519 30.8309 66.6987 30.8882C66.8455 30.9419 67.0103 30.9688 67.1929 30.9688C67.3755 30.9688 67.5277 30.9437 67.6494 30.8936C67.7712 30.8434 67.8643 30.7754 67.9287 30.6895C67.9932 30.5999 68.0254 30.4979 68.0254 30.3833Z" fill="#28FEFE"/>
<defs>
<linearGradient id="paint0_linear_22_2" x1="59.8" y1="0" x2="59.8" y2="40" gradientUnits="userSpaceOnUse">
<stop stop-color="#091A1A"/>
<stop offset="1" stop-color="#042020"/>
</linearGradient>
</defs>
</svg>
