<svg width="120" height="40" viewBox="0 0 120 40" fill="none" xmlns="http://www.w3.org/2000/svg">
<path d="M113.62 0H5.98C2.67734 0 0 2.68629 0 6V34C0 37.3137 2.67734 40 5.98 40H113.62C116.923 40 119.6 37.3137 119.6 34V6C119.6 2.68629 116.923 0 113.62 0Z" fill="url(#paint0_linear_6_51)"/>
<path d="M113.772 1H6.22785C3.34059 1 1 3.31998 1 6.18182V33.8182C1 36.68 3.34059 39 6.22785 39H113.772C116.659 39 119 36.68 119 33.8182V6.18182C119 3.31998 116.659 1 113.772 1Z" stroke="white" stroke-opacity="0.15" stroke-width="1.5"/>
<path d="M25.4648 14.3153C25.3451 9.82019 21.9319 8.00636 17.5324 8.00636H9V17.0895L14.4562 22.1519V12.5219H17.6287C21.0172 12.5219 21.0172 16.9089 17.6287 16.9089H15.5326V21.1H17.6287C21.0172 21.1 21.0172 25.4858 17.6287 25.4858H9V30H17.5324C21.9306 30 25.3438 28.1862 25.4648 23.691C25.4648 21.6228 24.9155 20.0774 23.9477 19.0025C24.9155 17.929 25.4648 16.3836 25.4648 14.3153Z" fill="#3E82E5"/>
<path d="M23.7403 8H22.7923C23.1206 8.16917 23.4305 8.35742 23.7181 8.56348C24.5909 9.18802 25.2747 9.98173 25.75 10.9204C26.2425 11.8948 26.5092 13.0268 26.5437 14.2861V14.3166C26.5437 16.1114 26.5437 21.8988 26.5437 23.6923V23.7228C26.5104 24.9821 26.2438 26.1141 25.75 27.0885C25.2747 28.0272 24.5921 28.8209 23.7181 29.4454C23.4391 29.6451 23.1392 29.8283 22.8219 29.9936H23.7169C27.9905 30.0178 31.9999 27.816 31.9999 22.7701V15.3965C32.0234 10.2514 28.0139 8 23.7403 8Z" fill="white"/>
<path d="M45.8857 9.71705L43.2404 17H42.1592L45.2052 9.00906H45.9022L45.8857 9.71705ZM48.103 17L45.4521 9.71705L45.4357 9.00906H46.1327L49.1896 17H48.103ZM47.9658 14.0418V14.909H43.4763V14.0418H47.9658ZM51.6374 16.0835L53.262 11.0617H54.2992L52.1643 17H51.4837L51.6374 16.0835ZM50.2818 11.0617L51.9557 16.1109L52.071 17H51.3904L49.239 11.0617H50.2818ZM58.6899 15.9847V12.9277C58.6899 12.6935 58.6423 12.4905 58.5472 12.3185C58.4557 12.1429 58.3167 12.0075 58.1301 11.9124C57.9435 11.8172 57.7129 11.7697 57.4385 11.7697C57.1824 11.7697 56.9574 11.8136 56.7635 11.9014C56.5732 11.9892 56.4232 12.1045 56.3134 12.2471C56.2073 12.3898 56.1543 12.5435 56.1543 12.7082H55.1389C55.1389 12.496 55.1938 12.2856 55.3036 12.077C55.4134 11.8685 55.5707 11.68 55.7756 11.5117C55.9841 11.3398 56.2329 11.2044 56.522 11.1056C56.8147 11.0031 57.1403 10.9519 57.4989 10.9519C57.9307 10.9519 58.3112 11.0251 58.6405 11.1714C58.9734 11.3178 59.2332 11.5392 59.4198 11.8355C59.6101 12.1282 59.7052 12.496 59.7052 12.9387V15.7048C59.7052 15.9023 59.7217 16.1127 59.7546 16.3359C59.7912 16.5591 59.8442 16.7512 59.9137 16.9122V17H58.8545C58.8033 16.8829 58.763 16.7274 58.7338 16.5335C58.7045 16.3359 58.6899 16.153 58.6899 15.9847ZM58.8655 13.3997L58.8765 14.1132H57.8502C57.5611 14.1132 57.3032 14.1369 57.0763 14.1845C56.8495 14.2284 56.6592 14.2961 56.5055 14.3876C56.3519 14.479 56.2348 14.5943 56.1543 14.7333C56.0738 14.8687 56.0335 15.0279 56.0335 15.2108C56.0335 15.3974 56.0756 15.5676 56.1598 15.7212C56.2439 15.8749 56.3701 15.9975 56.5385 16.0889C56.7104 16.1768 56.9208 16.2207 57.1696 16.2207C57.4806 16.2207 57.755 16.1548 57.9929 16.0231C58.2307 15.8914 58.4191 15.7304 58.5581 15.5401C58.7008 15.3499 58.7777 15.1651 58.7887 14.9858L59.2222 15.4743C59.1966 15.6279 59.1271 15.7981 59.0137 15.9847C58.9002 16.1713 58.7484 16.3506 58.5581 16.5225C58.3715 16.6908 58.1484 16.8317 57.8886 16.9451C57.6325 17.0549 57.3434 17.1098 57.0214 17.1098C56.619 17.1098 56.2659 17.0311 55.9622 16.8738C55.6622 16.7164 55.428 16.5061 55.2597 16.2426C55.095 15.9755 55.0127 15.6773 55.0127 15.348C55.0127 15.0297 55.0749 14.7498 55.1993 14.5083C55.3237 14.2632 55.503 14.0601 55.7372 13.8991C55.9713 13.7345 56.2531 13.6101 56.5824 13.5259C56.9117 13.4418 57.2794 13.3997 57.6855 13.3997H58.8655ZM62.4054 11.0617V17H61.3846V11.0617H62.4054ZM61.3078 9.48654C61.3078 9.32189 61.3572 9.18286 61.456 9.06943C61.5584 8.95601 61.7084 8.8993 61.906 8.8993C62.0999 8.8993 62.2481 8.95601 62.3505 9.06943C62.4567 9.18286 62.5097 9.32189 62.5097 9.48654C62.5097 9.64387 62.4567 9.77925 62.3505 9.89268C62.2481 10.0024 62.0999 10.0573 61.906 10.0573C61.7084 10.0573 61.5584 10.0024 61.456 9.89268C61.3572 9.77925 61.3078 9.64387 61.3078 9.48654ZM65.1386 8.57V17H64.1178V8.57H65.1386ZM70.2701 15.9847V12.9277C70.2701 12.6935 70.2226 12.4905 70.1274 12.3185C70.036 12.1429 69.8969 12.0075 69.7103 11.9124C69.5237 11.8172 69.2932 11.7697 69.0188 11.7697C68.7627 11.7697 68.5377 11.8136 68.3438 11.9014C68.1535 11.9892 68.0035 12.1045 67.8937 12.2471C67.7876 12.3898 67.7346 12.5435 67.7346 12.7082H66.7192C66.7192 12.496 66.7741 12.2856 66.8839 12.077C66.9936 11.8685 67.151 11.68 67.3559 11.5117C67.5644 11.3398 67.8132 11.2044 68.1023 11.1056C68.395 11.0031 68.7206 10.9519 69.0792 10.9519C69.5109 10.9519 69.8914 11.0251 70.2207 11.1714C70.5537 11.3178 70.8135 11.5392 71.0001 11.8355C71.1903 12.1282 71.2855 12.496 71.2855 12.9387V15.7048C71.2855 15.9023 71.3019 16.1127 71.3349 16.3359C71.3715 16.5591 71.4245 16.7512 71.494 16.9122V17H70.4348C70.3836 16.8829 70.3433 16.7274 70.314 16.5335C70.2848 16.3359 70.2701 16.153 70.2701 15.9847ZM70.4458 13.3997L70.4567 14.1132H69.4304C69.1414 14.1132 68.8834 14.1369 68.6566 14.1845C68.4297 14.2284 68.2395 14.2961 68.0858 14.3876C67.9321 14.479 67.815 14.5943 67.7346 14.7333C67.6541 14.8687 67.6138 15.0279 67.6138 15.2108C67.6138 15.3974 67.6559 15.5676 67.74 15.7212C67.8242 15.8749 67.9504 15.9975 68.1187 16.0889C68.2907 16.1768 68.5011 16.2207 68.7499 16.2207C69.0609 16.2207 69.3353 16.1548 69.5731 16.0231C69.811 15.8914 69.9994 15.7304 70.1384 15.5401C70.2811 15.3499 70.3579 15.1651 70.3689 14.9858L70.8025 15.4743C70.7769 15.6279 70.7074 15.7981 70.5939 15.9847C70.4805 16.1713 70.3287 16.3506 70.1384 16.5225C69.9518 16.6908 69.7286 16.8317 69.4688 16.9451C69.2127 17.0549 68.9237 17.1098 68.6017 17.1098C68.1992 17.1098 67.8461 17.0311 67.5425 16.8738C67.2424 16.7164 67.0083 16.5061 66.84 16.2426C66.6753 15.9755 66.593 15.6773 66.593 15.348C66.593 15.0297 66.6552 14.7498 66.7796 14.5083C66.904 14.2632 67.0833 14.0601 67.3174 13.8991C67.5516 13.7345 67.8333 13.6101 68.1626 13.5259C68.4919 13.4418 68.8596 13.3997 69.2658 13.3997H70.4458ZM72.8771 8.57H73.8979V15.8475L73.8101 17H72.8771V8.57ZM77.9098 13.9814V14.0967C77.9098 14.5284 77.8586 14.9291 77.7562 15.2986C77.6537 15.6645 77.5037 15.9828 77.3061 16.2536C77.1085 16.5243 76.8671 16.7347 76.5817 16.8847C76.2963 17.0348 75.9688 17.1098 75.5993 17.1098C75.2224 17.1098 74.8913 17.0457 74.6059 16.9177C74.3241 16.786 74.0863 16.5975 73.8924 16.3524C73.6985 16.1072 73.543 15.8109 73.4259 15.4633C73.3125 15.1157 73.2338 14.7242 73.1899 14.2888V13.7839C73.2338 13.3448 73.3125 12.9515 73.4259 12.6039C73.543 12.2563 73.6985 11.9599 73.8924 11.7148C74.0863 11.466 74.3241 11.2776 74.6059 11.1495C74.8876 11.0178 75.2151 10.9519 75.5883 10.9519C75.9615 10.9519 76.2926 11.0251 76.5817 11.1714C76.8707 11.3141 77.1122 11.519 77.3061 11.7861C77.5037 12.0532 77.6537 12.3734 77.7562 12.7466C77.8586 13.1161 77.9098 13.5277 77.9098 13.9814ZM76.889 14.0967V13.9814C76.889 13.6851 76.8616 13.407 76.8067 13.1472C76.7518 12.8838 76.664 12.6533 76.5432 12.4557C76.4225 12.2545 76.2633 12.0971 76.0658 11.9837C75.8682 11.8666 75.6249 11.8081 75.3358 11.8081C75.0797 11.8081 74.8565 11.852 74.6663 11.9398C74.4796 12.0276 74.3205 12.1465 74.1888 12.2965C74.0571 12.4429 73.9491 12.6112 73.865 12.8015C73.7845 12.9881 73.7241 13.182 73.6838 13.3832V14.7059C73.7424 14.962 73.8375 15.209 73.9692 15.4468C74.1046 15.681 74.2839 15.8731 74.5071 16.0231C74.7339 16.1731 75.0138 16.2481 75.3468 16.2481C75.6212 16.2481 75.8554 16.1932 76.0493 16.0835C76.2469 15.97 76.406 15.8145 76.5268 15.617C76.6512 15.4194 76.7426 15.1907 76.8012 14.9309C76.8597 14.6711 76.889 14.3931 76.889 14.0967ZM80.2972 8.57V17H79.2764V8.57H80.2972ZM84.3915 17.1098C83.978 17.1098 83.603 17.0402 83.2664 16.9012C82.9334 16.7585 82.6462 16.5591 82.4047 16.303C82.1669 16.0469 81.984 15.7432 81.8559 15.3919C81.7278 15.0407 81.6638 14.6565 81.6638 14.2394V14.0089C81.6638 13.5259 81.7352 13.096 81.8778 12.7191C82.0205 12.3386 82.2145 12.0166 82.4596 11.7532C82.7048 11.4898 82.9828 11.2904 83.2938 11.155C83.6048 11.0196 83.9268 10.9519 84.2598 10.9519C84.6842 10.9519 85.0501 11.0251 85.3574 11.1714C85.6684 11.3178 85.9227 11.5227 86.1203 11.7861C86.3179 12.0459 86.4642 12.3533 86.5594 12.7082C86.6545 13.0594 86.702 13.4436 86.702 13.8607V14.3162H82.2675V13.4875H85.6867V13.4107C85.6721 13.1472 85.6172 12.8911 85.5221 12.6423C85.4306 12.3935 85.2842 12.1886 85.083 12.0276C84.8818 11.8666 84.6074 11.7861 84.2598 11.7861C84.0293 11.7861 83.817 11.8355 83.6231 11.9343C83.4292 12.0294 83.2627 12.1721 83.1237 12.3624C82.9847 12.5527 82.8767 12.785 82.7999 13.0594C82.723 13.3338 82.6846 13.6503 82.6846 14.0089V14.2394C82.6846 14.5211 82.723 14.7864 82.7999 15.0352C82.8804 15.2803 82.9956 15.4962 83.1456 15.6828C83.2993 15.8694 83.4841 16.0158 83.7 16.1219C83.9195 16.228 84.1683 16.281 84.4464 16.281C84.8049 16.281 85.1086 16.2079 85.3574 16.0615C85.6062 15.9151 85.8239 15.7194 86.0105 15.4743L86.6252 15.9627C86.4972 16.1566 86.3343 16.3414 86.1368 16.517C85.9392 16.6927 85.6959 16.8354 85.4068 16.9451C85.1214 17.0549 84.783 17.1098 84.3915 17.1098ZM90.4066 14.0967V13.9705C90.4066 13.5424 90.4688 13.1454 90.5932 12.7795C90.7176 12.41 90.8969 12.0898 91.1311 11.8191C91.3653 11.5446 91.6488 11.3324 91.9818 11.1824C92.3147 11.0288 92.6879 10.9519 93.1014 10.9519C93.5185 10.9519 93.8935 11.0288 94.2265 11.1824C94.5631 11.3324 94.8485 11.5446 95.0827 11.8191C95.3205 12.0898 95.5016 12.41 95.626 12.7795C95.7504 13.1454 95.8126 13.5424 95.8126 13.9705V14.0967C95.8126 14.5248 95.7504 14.9218 95.626 15.2877C95.5016 15.6535 95.3205 15.9737 95.0827 16.2481C94.8485 16.5189 94.5649 16.7311 94.232 16.8847C93.9027 17.0348 93.5295 17.1098 93.1124 17.1098C92.6953 17.1098 92.3202 17.0348 91.9873 16.8847C91.6543 16.7311 91.3689 16.5189 91.1311 16.2481C90.8969 15.9737 90.7176 15.6535 90.5932 15.2877C90.4688 14.9218 90.4066 14.5248 90.4066 14.0967ZM91.422 13.9705V14.0967C91.422 14.3931 91.4567 14.673 91.5262 14.9364C91.5958 15.1962 91.7 15.4267 91.8391 15.6279C91.9818 15.8292 92.1592 15.9883 92.3714 16.1054C92.5837 16.2188 92.8306 16.2755 93.1124 16.2755C93.3904 16.2755 93.6337 16.2188 93.8423 16.1054C94.0545 15.9883 94.2301 15.8292 94.3692 15.6279C94.5082 15.4267 94.6125 15.1962 94.682 14.9364C94.7552 14.673 94.7918 14.3931 94.7918 14.0967V13.9705C94.7918 13.6778 94.7552 13.4015 94.682 13.1417C94.6125 12.8783 94.5064 12.646 94.3637 12.4447C94.2247 12.2398 94.049 12.0788 93.8368 11.9618C93.6283 11.8447 93.3831 11.7861 93.1014 11.7861C92.8233 11.7861 92.5782 11.8447 92.366 11.9618C92.1574 12.0788 91.9818 12.2398 91.8391 12.4447C91.7 12.646 91.5958 12.8783 91.5262 13.1417C91.4567 13.4015 91.422 13.6778 91.422 13.9705ZM98.1012 12.3295V17H97.0859V11.0617H98.0463L98.1012 12.3295ZM97.8597 13.8058L97.4371 13.7894C97.4408 13.3832 97.5012 13.0082 97.6182 12.6643C97.7353 12.3167 97.9 12.0148 98.1122 11.7587C98.3244 11.5026 98.5769 11.305 98.8696 11.166C99.1659 11.0233 99.4934 10.9519 99.852 10.9519C100.145 10.9519 100.408 10.9922 100.642 11.0727C100.876 11.1495 101.076 11.2739 101.241 11.4459C101.409 11.6178 101.537 11.841 101.625 12.1154C101.712 12.3862 101.756 12.7173 101.756 13.1088V17H100.736V13.0978C100.736 12.7868 100.69 12.538 100.598 12.3514C100.507 12.1612 100.373 12.024 100.198 11.9398C100.022 11.852 99.8062 11.8081 99.5501 11.8081C99.2977 11.8081 99.0671 11.8611 98.8586 11.9672C98.6537 12.0734 98.4762 12.2197 98.3262 12.4063C98.1799 12.5929 98.0646 12.807 97.9805 13.0484C97.9 13.2863 97.8597 13.5387 97.8597 13.8058Z" fill="white"/>
<path d="M45.7705 26.6216H43.7617L43.751 25.4507H45.4106C45.7043 25.4507 45.9424 25.4149 46.125 25.3433C46.3112 25.2716 46.4473 25.1678 46.5332 25.0317C46.6191 24.8921 46.6621 24.7202 46.6621 24.5161C46.6621 24.2834 46.6191 24.0954 46.5332 23.9521C46.4473 23.8089 46.3112 23.7051 46.125 23.6406C45.9424 23.5726 45.7061 23.5386 45.416 23.5386H44.3955V30H42.6445V22.1797H45.416C45.8851 22.1797 46.304 22.2227 46.6729 22.3086C47.0417 22.3945 47.355 22.527 47.6128 22.7061C47.8742 22.8851 48.0729 23.1089 48.209 23.3774C48.3451 23.646 48.4131 23.9629 48.4131 24.3281C48.4131 24.6468 48.3415 24.944 48.1982 25.2197C48.0586 25.4954 47.833 25.7192 47.5215 25.8911C47.21 26.063 46.7928 26.1561 46.27 26.1704L45.7705 26.6216ZM45.7007 30H43.3159L43.9497 28.6465H45.7007C45.9692 28.6465 46.1877 28.6035 46.356 28.5176C46.5243 28.4316 46.6478 28.3153 46.7266 28.1685C46.8053 28.0216 46.8447 27.8569 46.8447 27.6743C46.8447 27.4595 46.8071 27.2733 46.7319 27.1157C46.6603 26.9582 46.5457 26.8364 46.3882 26.7505C46.2342 26.6646 46.0283 26.6216 45.7705 26.6216H44.2021L44.2129 25.4507H46.1304L46.5386 25.9126C47.0363 25.9019 47.4338 25.9824 47.731 26.1543C48.0317 26.3226 48.2484 26.5446 48.3809 26.8203C48.5133 27.096 48.5796 27.3879 48.5796 27.6958C48.5796 28.2043 48.4704 28.6304 48.252 28.9741C48.0335 29.3143 47.7095 29.5703 47.2798 29.7422C46.8537 29.9141 46.3273 30 45.7007 30ZM52.3662 30.1074C51.9043 30.1074 51.4907 30.034 51.1255 29.8872C50.7603 29.7404 50.4505 29.5381 50.1963 29.2803C49.9456 29.0189 49.7541 28.7181 49.6216 28.3779C49.4891 28.0378 49.4229 27.6743 49.4229 27.2876V27.0835C49.4229 26.6502 49.4837 26.251 49.6055 25.8857C49.7272 25.5205 49.9045 25.2036 50.1372 24.9351C50.3735 24.6629 50.6636 24.4535 51.0073 24.3066C51.3511 24.1562 51.7432 24.0811 52.1836 24.0811C52.5954 24.0811 52.9624 24.1491 53.2847 24.2852C53.6069 24.4176 53.8791 24.6092 54.1011 24.8599C54.3231 25.1069 54.4914 25.4059 54.606 25.7568C54.7241 26.1042 54.7832 26.4945 54.7832 26.9277V27.6152H50.0996V26.5356H53.1396V26.4067C53.1396 26.2026 53.1021 26.0236 53.0269 25.8696C52.9552 25.7157 52.8478 25.5975 52.7046 25.5151C52.5649 25.4292 52.3877 25.3862 52.1729 25.3862C51.9688 25.3862 51.7987 25.4292 51.6626 25.5151C51.5265 25.6011 51.4173 25.7228 51.335 25.8804C51.2562 26.0343 51.1989 26.2152 51.1631 26.4229C51.1273 26.627 51.1094 26.8472 51.1094 27.0835V27.2876C51.1094 27.5132 51.1398 27.7191 51.2007 27.9053C51.2616 28.0915 51.3511 28.2508 51.4692 28.3833C51.5874 28.5158 51.7306 28.6196 51.8989 28.6948C52.0672 28.77 52.2588 28.8076 52.4736 28.8076C52.7386 28.8076 52.991 28.7575 53.231 28.6572C53.4709 28.5534 53.6785 28.3923 53.854 28.1738L54.6382 29.0708C54.52 29.2427 54.3535 29.4092 54.1387 29.5703C53.9274 29.7279 53.6732 29.8568 53.376 29.957C53.0788 30.0573 52.7422 30.1074 52.3662 30.1074ZM58.5537 24.1885V25.3647H55.1055V24.1885H58.5537ZM55.895 22.749H57.5762V28.1792C57.5762 28.3403 57.5959 28.4639 57.6353 28.5498C57.6746 28.6357 57.7391 28.6966 57.8286 28.7324C57.9181 28.7646 58.0327 28.7808 58.1724 28.7808C58.2726 28.7808 58.3586 28.7772 58.4302 28.77C58.5018 28.7629 58.568 28.7539 58.6289 28.7432V29.957C58.4857 30.0036 58.3335 30.0394 58.1724 30.0645C58.0112 30.0931 57.8358 30.1074 57.646 30.1074C57.2843 30.1074 56.971 30.0483 56.7061 29.9302C56.4447 29.812 56.2441 29.6258 56.1045 29.3716C55.9648 29.1138 55.895 28.779 55.895 28.3672V22.749ZM62.3135 24.1885V25.3647H58.8652V24.1885H62.3135ZM59.6548 22.749H61.3359V28.1792C61.3359 28.3403 61.3556 28.4639 61.395 28.5498C61.4344 28.6357 61.4989 28.6966 61.5884 28.7324C61.6779 28.7646 61.7925 28.7808 61.9321 28.7808C62.0324 28.7808 62.1183 28.7772 62.1899 28.77C62.2616 28.7629 62.3278 28.7539 62.3887 28.7432V29.957C62.2454 30.0036 62.0933 30.0394 61.9321 30.0645C61.771 30.0931 61.5955 30.1074 61.4058 30.1074C61.0441 30.1074 60.7308 30.0483 60.4658 29.9302C60.2044 29.812 60.0039 29.6258 59.8643 29.3716C59.7246 29.1138 59.6548 28.779 59.6548 28.3672V22.749ZM65.8584 30.1074C65.3965 30.1074 64.9829 30.034 64.6177 29.8872C64.2524 29.7404 63.9427 29.5381 63.6885 29.2803C63.4378 29.0189 63.2463 28.7181 63.1138 28.3779C62.9813 28.0378 62.915 27.6743 62.915 27.2876V27.0835C62.915 26.6502 62.9759 26.251 63.0977 25.8857C63.2194 25.5205 63.3966 25.2036 63.6294 24.9351C63.8657 24.6629 64.1558 24.4535 64.4995 24.3066C64.8433 24.1562 65.2354 24.0811 65.6758 24.0811C66.0876 24.0811 66.4546 24.1491 66.7769 24.2852C67.0991 24.4176 67.3713 24.6092 67.5933 24.8599C67.8153 25.1069 67.9836 25.4059 68.0981 25.7568C68.2163 26.1042 68.2754 26.4945 68.2754 26.9277V27.6152H63.5918V26.5356H66.6318V26.4067C66.6318 26.2026 66.5942 26.0236 66.519 25.8696C66.4474 25.7157 66.34 25.5975 66.1968 25.5151C66.0571 25.4292 65.8799 25.3862 65.665 25.3862C65.4609 25.3862 65.2909 25.4292 65.1548 25.5151C65.0187 25.6011 64.9095 25.7228 64.8271 25.8804C64.7484 26.0343 64.6911 26.2152 64.6553 26.4229C64.6195 26.627 64.6016 26.8472 64.6016 27.0835V27.2876C64.6016 27.5132 64.632 27.7191 64.6929 27.9053C64.7537 28.0915 64.8433 28.2508 64.9614 28.3833C65.0796 28.5158 65.2228 28.6196 65.3911 28.6948C65.5594 28.77 65.751 28.8076 65.9658 28.8076C66.2308 28.8076 66.4832 28.7575 66.7231 28.6572C66.9631 28.5534 67.1707 28.3923 67.3462 28.1738L68.1304 29.0708C68.0122 29.2427 67.8457 29.4092 67.6309 29.5703C67.4196 29.7279 67.1654 29.8568 66.8682 29.957C66.571 30.0573 66.2344 30.1074 65.8584 30.1074ZM70.7729 25.542V30H69.0972V24.1885H70.6709L70.7729 25.542ZM72.5078 24.1455L72.481 25.7085C72.4093 25.6978 72.3162 25.6888 72.2017 25.6816C72.0871 25.6709 71.9886 25.6655 71.9062 25.6655C71.6914 25.6655 71.5052 25.6924 71.3477 25.7461C71.1937 25.7962 71.0648 25.8714 70.9609 25.9717C70.8607 26.0719 70.7855 26.1973 70.7354 26.3477C70.6852 26.4945 70.6602 26.6646 70.6602 26.8579L70.3433 26.7021C70.3433 26.319 70.3809 25.9681 70.4561 25.6494C70.5312 25.3307 70.6405 25.055 70.7837 24.8223C70.9269 24.5859 71.1024 24.4033 71.3101 24.2744C71.5177 24.1455 71.7541 24.0811 72.019 24.0811C72.105 24.0811 72.1927 24.0864 72.2822 24.0972C72.3717 24.1079 72.4469 24.124 72.5078 24.1455ZM75.7573 30H74.0386L74.0493 28.6465H75.7573C76.1476 28.6465 76.4771 28.557 76.7456 28.3779C77.0142 28.1953 77.2183 27.9268 77.3579 27.5723C77.4976 27.2142 77.5674 26.7791 77.5674 26.2671V25.9072C77.5674 25.5205 77.528 25.1803 77.4492 24.8867C77.3704 24.5895 77.2541 24.3407 77.1001 24.1401C76.9461 23.9396 76.7546 23.7892 76.5254 23.689C76.2998 23.5887 76.0402 23.5386 75.7466 23.5386H74.0063V22.1797H75.7466C76.2765 22.1797 76.7599 22.2692 77.1968 22.4482C77.6372 22.6273 78.0168 22.8833 78.3354 23.2163C78.6577 23.5493 78.9066 23.9432 79.082 24.3979C79.2575 24.8527 79.3452 25.3594 79.3452 25.918V26.2671C79.3452 26.8221 79.2575 27.3288 79.082 27.7871C78.9066 28.2419 78.6577 28.6357 78.3354 28.9688C78.0168 29.2982 77.639 29.5524 77.2021 29.7314C76.7653 29.9105 76.2837 30 75.7573 30ZM75.0322 22.1797V30H73.2812V22.1797H75.0322ZM82.0952 24.1885V30H80.4141V24.1885H82.0952ZM80.312 22.6846C80.312 22.4411 80.3979 22.2424 80.5698 22.0884C80.7417 21.9308 80.9673 21.8521 81.2466 21.8521C81.5259 21.8521 81.7515 21.9308 81.9233 22.0884C82.0988 22.2424 82.1865 22.4411 82.1865 22.6846C82.1865 22.9245 82.0988 23.1232 81.9233 23.2808C81.7515 23.4347 81.5259 23.5117 81.2466 23.5117C80.9673 23.5117 80.7417 23.4347 80.5698 23.2808C80.3979 23.1232 80.312 22.9245 80.312 22.6846ZM86.3975 28.3833C86.3975 28.2759 86.3634 28.181 86.2954 28.0986C86.231 28.0163 86.1128 27.9411 85.9409 27.873C85.7726 27.805 85.5345 27.737 85.2266 27.6689C84.9365 27.6081 84.6662 27.5293 84.4155 27.4326C84.1649 27.3324 83.9465 27.2124 83.7603 27.0728C83.5741 26.9295 83.429 26.7612 83.3252 26.5679C83.2214 26.3709 83.1694 26.1471 83.1694 25.8965C83.1694 25.653 83.2214 25.422 83.3252 25.2036C83.4326 24.9852 83.5866 24.7918 83.7871 24.6235C83.9912 24.4552 84.2383 24.3228 84.5283 24.2261C84.8219 24.1294 85.1549 24.0811 85.5273 24.0811C86.0394 24.0811 86.4816 24.1616 86.854 24.3228C87.2264 24.4803 87.5129 24.7023 87.7134 24.9888C87.9139 25.2716 88.0142 25.5957 88.0142 25.9609H86.3384C86.3384 25.8105 86.3097 25.6799 86.2524 25.5688C86.1951 25.4578 86.1074 25.3719 85.9893 25.311C85.8711 25.2466 85.7153 25.2144 85.522 25.2144C85.3716 25.2144 85.2391 25.2412 85.1245 25.2949C85.0135 25.3451 84.9258 25.4149 84.8613 25.5044C84.8005 25.5939 84.77 25.6978 84.77 25.8159C84.77 25.8983 84.7879 25.9735 84.8237 26.0415C84.8631 26.106 84.9222 26.1668 85.001 26.2241C85.0833 26.2778 85.189 26.3262 85.3179 26.3691C85.4504 26.4121 85.6115 26.4533 85.8013 26.4927C86.2059 26.5679 86.5747 26.6735 86.9077 26.8096C87.2443 26.9456 87.5129 27.1336 87.7134 27.3735C87.9175 27.6134 88.0195 27.9303 88.0195 28.3242C88.0195 28.582 87.9604 28.8184 87.8423 29.0332C87.7277 29.248 87.5612 29.436 87.3428 29.5972C87.1243 29.7583 86.863 29.8836 86.5586 29.9731C86.2542 30.0627 85.9105 30.1074 85.5273 30.1074C84.9795 30.1074 84.5158 30.009 84.1362 29.812C83.7567 29.6151 83.4702 29.368 83.2769 29.0708C83.0871 28.77 82.9922 28.4621 82.9922 28.147H84.5659C84.5731 28.3403 84.6214 28.4979 84.7109 28.6196C84.804 28.7414 84.924 28.8309 85.0708 28.8882C85.2176 28.9419 85.3823 28.9688 85.5649 28.9688C85.7476 28.9688 85.8997 28.9437 86.0215 28.8936C86.1432 28.8434 86.2363 28.7754 86.3008 28.6895C86.3652 28.5999 86.3975 28.4979 86.3975 28.3833ZM91.3818 28.8022C91.5609 28.8022 91.7166 28.7682 91.8491 28.7002C91.9816 28.6322 92.0837 28.5373 92.1553 28.4155C92.2305 28.2902 92.2681 28.1398 92.2681 27.9644H93.8472C93.8472 28.3869 93.738 28.7593 93.5195 29.0815C93.3047 29.4038 93.0146 29.6562 92.6494 29.8389C92.2842 30.0179 91.8724 30.1074 91.4141 30.1074C90.9629 30.1074 90.569 30.034 90.2324 29.8872C89.8958 29.7368 89.6147 29.5273 89.3892 29.2588C89.1636 28.9902 88.9935 28.6787 88.8789 28.3242C88.7679 27.9661 88.7124 27.5794 88.7124 27.1641V27.0244C88.7124 26.6126 88.7679 26.2277 88.8789 25.8696C88.9935 25.5116 89.1636 25.1982 89.3892 24.9297C89.6147 24.6611 89.894 24.4535 90.2271 24.3066C90.5636 24.1562 90.9575 24.0811 91.4087 24.0811C91.8849 24.0811 92.3057 24.1724 92.6709 24.355C93.0397 24.5376 93.328 24.8008 93.5356 25.1445C93.7433 25.4847 93.8472 25.8947 93.8472 26.3745H92.2681C92.2681 26.1883 92.234 26.0218 92.166 25.875C92.1016 25.7246 92.0013 25.6064 91.8652 25.5205C91.7327 25.431 91.568 25.3862 91.3711 25.3862C91.167 25.3862 90.9987 25.431 90.8662 25.5205C90.7373 25.6064 90.6388 25.7264 90.5708 25.8804C90.5028 26.0343 90.4562 26.2098 90.4312 26.4067C90.4061 26.6001 90.3936 26.806 90.3936 27.0244V27.1641C90.3936 27.3861 90.4061 27.5973 90.4312 27.7979C90.4562 27.9948 90.5028 28.1685 90.5708 28.3188C90.6424 28.4692 90.7427 28.5874 90.8716 28.6733C91.0005 28.7593 91.1706 28.8022 91.3818 28.8022ZM94.438 27.1533V27.0405C94.438 26.6144 94.4989 26.2223 94.6206 25.8643C94.7424 25.5026 94.9214 25.1893 95.1577 24.9243C95.394 24.6593 95.6841 24.4535 96.0278 24.3066C96.3716 24.1562 96.7655 24.0811 97.2095 24.0811C97.6606 24.0811 98.0581 24.1562 98.4019 24.3066C98.7492 24.4535 99.041 24.6593 99.2773 24.9243C99.5137 25.1893 99.6927 25.5026 99.8145 25.8643C99.9362 26.2223 99.9971 26.6144 99.9971 27.0405V27.1533C99.9971 27.5758 99.9362 27.9679 99.8145 28.3296C99.6927 28.6877 99.5137 29.001 99.2773 29.2695C99.041 29.5345 98.751 29.7404 98.4072 29.8872C98.0635 30.034 97.6678 30.1074 97.2202 30.1074C96.7762 30.1074 96.3805 30.034 96.0332 29.8872C95.6859 29.7404 95.394 29.5345 95.1577 29.2695C94.9214 29.001 94.7424 28.6877 94.6206 28.3296C94.4989 27.9679 94.438 27.5758 94.438 27.1533ZM96.1191 27.0405V27.1533C96.1191 27.3825 96.137 27.5973 96.1729 27.7979C96.2122 27.9984 96.2749 28.1738 96.3608 28.3242C96.4468 28.4746 96.5596 28.5928 96.6992 28.6787C96.8424 28.7611 97.0161 28.8022 97.2202 28.8022C97.4243 28.8022 97.5962 28.7611 97.7358 28.6787C97.8755 28.5928 97.9883 28.4746 98.0742 28.3242C98.1602 28.1738 98.221 27.9984 98.2568 27.7979C98.2962 27.5973 98.3159 27.3825 98.3159 27.1533V27.0405C98.3159 26.8149 98.2962 26.6037 98.2568 26.4067C98.221 26.2062 98.1602 26.029 98.0742 25.875C97.9883 25.721 97.8737 25.6011 97.7305 25.5151C97.5908 25.4292 97.4172 25.3862 97.2095 25.3862C97.009 25.3862 96.8389 25.4292 96.6992 25.5151C96.5596 25.6011 96.4468 25.721 96.3608 25.875C96.2749 26.029 96.2122 26.2062 96.1729 26.4067C96.137 26.6037 96.1191 26.8149 96.1191 27.0405ZM102.559 25.542V30H100.883V24.1885H102.457L102.559 25.542ZM104.294 24.1455L104.267 25.7085C104.195 25.6978 104.102 25.6888 103.988 25.6816C103.873 25.6709 103.775 25.6655 103.692 25.6655C103.478 25.6655 103.291 25.6924 103.134 25.7461C102.98 25.7962 102.851 25.8714 102.747 25.9717C102.647 26.0719 102.572 26.1973 102.521 26.3477C102.471 26.4945 102.446 26.6646 102.446 26.8579L102.129 26.7021C102.129 26.319 102.167 25.9681 102.242 25.6494C102.317 25.3307 102.427 25.055 102.57 24.8223C102.713 24.5859 102.889 24.4033 103.096 24.2744C103.304 24.1455 103.54 24.0811 103.805 24.0811C103.891 24.0811 103.979 24.0864 104.068 24.0972C104.158 24.1079 104.233 24.124 104.294 24.1455ZM108.258 28.7002V21.75H109.944V30H108.43L108.258 28.7002ZM104.638 27.1641V27.0513C104.638 26.6108 104.686 26.2098 104.783 25.8481C104.883 25.4829 105.028 25.1696 105.218 24.9082C105.411 24.6432 105.649 24.4391 105.932 24.2959C106.215 24.1527 106.539 24.0811 106.904 24.0811C107.241 24.0811 107.535 24.1562 107.785 24.3066C108.036 24.4535 108.249 24.6611 108.424 24.9297C108.603 25.1947 108.748 25.508 108.859 25.8696C108.97 26.2277 109.055 26.6162 109.112 27.0352V27.2285C109.058 27.6296 108.974 28.0037 108.859 28.3511C108.748 28.6984 108.603 29.0046 108.424 29.2695C108.249 29.5309 108.034 29.7368 107.78 29.8872C107.529 30.034 107.234 30.1074 106.894 30.1074C106.528 30.1074 106.204 30.034 105.921 29.8872C105.642 29.7404 105.408 29.5345 105.218 29.2695C105.028 29.0046 104.883 28.693 104.783 28.335C104.686 27.9769 104.638 27.5866 104.638 27.1641ZM106.313 27.0513V27.1641C106.313 27.3932 106.33 27.6063 106.362 27.8032C106.398 28.0002 106.455 28.1738 106.534 28.3242C106.612 28.4746 106.716 28.5928 106.845 28.6787C106.974 28.7611 107.132 28.8022 107.318 28.8022C107.569 28.8022 107.774 28.745 107.936 28.6304C108.097 28.5122 108.218 28.3493 108.301 28.1416C108.383 27.9339 108.426 27.6922 108.43 27.4165V26.8525C108.43 26.6234 108.406 26.4175 108.36 26.2349C108.313 26.0522 108.243 25.8983 108.15 25.7729C108.061 25.6476 107.948 25.5527 107.812 25.4883C107.676 25.4202 107.515 25.3862 107.329 25.3862C107.146 25.3862 106.99 25.4292 106.861 25.5151C106.732 25.5975 106.627 25.7139 106.544 25.8643C106.466 26.0146 106.407 26.1919 106.367 26.396C106.331 26.5965 106.313 26.8149 106.313 27.0513Z" fill="#3E82E5"/>
<defs>
<linearGradient id="paint0_linear_6_51" x1="59.8" y1="0" x2="59.8" y2="40" gradientUnits="userSpaceOnUse">
<stop stop-color="#0C0E28"/>
<stop offset="1" stop-color="#131636"/>
</linearGradient>
</defs>
</svg>
