<svg width="128" height="128" viewBox="0 0 128 128" fill="none" xmlns="http://www.w3.org/2000/svg">
<g clip-path="url(#clip0_4_2)">
<path d="M63.64 128.309C119.657 96.332 119.657 96.332 119.657 16.109C95.61 16.109 87.6175 16.109 63.64 0.120466M63.64 128.028C7.623 96.0515 7.62301 96.0515 7.62301 15.8285C31.67 15.8285 39.6625 15.8285 63.64 -0.160034" fill="#5865F2"/>
<path d="M63.64 128.309C119.657 96.332 119.657 96.332 119.657 16.109C95.61 16.109 87.6175 16.109 63.64 0.120466M63.64 128.028C7.623 96.0515 7.62301 96.0515 7.62301 15.8285C31.67 15.8285 39.6625 15.8285 63.64 -0.160034" stroke="white" stroke-width="0.999065" stroke-linecap="round" stroke-linejoin="round"/>
<path d="M75.46 75.689C84.2745 75.689 91.42 68.5435 91.42 59.729C91.42 50.9146 84.2745 43.769 75.46 43.769C66.6455 43.769 59.5 50.9146 59.5 59.729C59.5 68.5435 66.6455 75.689 75.46 75.689Z" stroke="white" stroke-width="7.98"/>
<path d="M63.8 64.037C63.8 75.015 58.81 80.005 47.8 80.005C36.79 80.005 31.8 75.005 31.8 64.037V40.085H39.79V64.037C39.79 71.0329 40.788 72.0309 47.78 72.0309C54.77 72.0309 55.77 71.0329 55.77 64.037V40.085H63.76L63.8 64.037Z" fill="white"/>
</g>
<defs>
<clipPath id="clip0_4_2">
<rect width="128" height="128" fill="white"/>
</clipPath>
</defs>
</svg>
